<?xml version="1.0" standalone="no"?>
<!DOCTYPE svg PUBLIC "-//W3C//DTD SVG 20010904//EN"
 "http://www.w3.org/TR/2001/REC-SVG-20010904/DTD/svg10.dtd">
<svg version="1.0" xmlns="http://www.w3.org/2000/svg"
 width="261.000000pt" height="127.000000pt" viewBox="0 0 261.000000 127.000000"
 preserveAspectRatio="xMidYMid meet">

<g transform="translate(0.000000,127.000000) scale(0.100000,-0.100000)"
fill="#000000" stroke="none">
<path d="M702 1180 c-17 -31 -112 -166 -163 -231 -15 -19 -41 -61 -59 -94 -87
-161 -90 -165 -120 -165 -15 0 -38 -9 -51 -19 l-24 -19 28 -11 28 -11 -36 -55
c-19 -31 -35 -58 -35 -60 0 -5 -55 -86 -120 -177 -34 -48 -36 -64 -7 -52 19 7
94 109 125 169 11 22 32 51 47 65 15 14 45 49 67 78 37 49 41 52 84 52 25 0
65 5 89 11 71 18 74 14 58 -78 -8 -43 -15 -132 -16 -198 -2 -117 -1 -122 31
-187 39 -80 55 -98 87 -98 41 0 58 27 51 84 -16 145 -18 255 -6 369 7 67 17
130 22 140 5 10 25 25 44 33 49 21 46 62 -3 43 l-26 -10 8 53 c5 29 9 87 9
128 1 41 5 99 10 128 l9 52 -45 45 c-25 25 -51 45 -57 45 -7 0 -20 -14 -29
-30z m-2 -93 c0 -13 -9 -73 -20 -133 -11 -60 -25 -133 -30 -163 -5 -30 -13
-58 -17 -62 -5 -4 -45 -14 -90 -22 -73 -12 -83 -12 -83 1 0 8 27 65 59 126 32
61 69 131 82 156 13 25 27 46 31 48 4 2 17 19 28 38 25 40 40 44 40 11z"/>
<path d="M961 804 c-11 -14 -25 -51 -32 -82 -6 -31 -16 -72 -21 -90 -10 -34
-13 -53 -22 -132 -5 -48 17 -110 39 -110 32 0 62 41 80 107 21 80 63 164 106
211 34 38 47 36 31 -5 -17 -45 -42 -152 -42 -183 0 -47 20 -78 58 -91 28 -9
36 -9 43 2 19 30 31 97 26 148 l-6 54 54 56 c29 31 56 53 60 49 3 -3 -1 -23
-10 -43 -20 -50 -45 -158 -45 -198 0 -35 32 -94 55 -103 25 -10 61 4 95 36 37
34 40 36 40 16 0 -25 49 -74 85 -86 30 -10 39 -9 65 10 16 12 42 41 56 66 27
47 44 49 44 7 0 -32 35 -90 59 -98 41 -13 80 18 143 113 l35 53 6 -47 c6 -57
32 -86 65 -73 12 4 22 16 22 24 0 31 52 170 86 230 57 102 120 125 69 26 -39
-78 -57 -157 -45 -201 21 -76 84 -97 149 -49 42 30 110 114 111 137 0 6 4 12
9 12 8 0 41 70 41 86 0 16 -23 -15 -59 -80 -48 -87 -83 -131 -121 -151 -42
-22 -42 -5 2 120 41 118 44 174 9 222 -25 34 -48 28 -110 -32 l-58 -55 -13 45
c-13 45 -49 85 -76 85 -8 0 -14 -6 -14 -13 0 -8 -13 -56 -30 -107 -16 -51 -30
-100 -30 -109 0 -23 -47 -109 -87 -158 -23 -29 -42 -43 -58 -43 l-24 0 15 51
c9 29 24 84 34 123 17 65 17 72 2 84 -17 13 -61 16 -78 4 -6 -4 -30 -47 -53
-96 -68 -148 -117 -193 -138 -129 -9 27 12 90 60 181 22 41 86 88 132 96 19 4
35 11 35 16 0 16 -61 60 -83 60 -71 -1 -167 -85 -223 -195 -35 -69 -81 -127
-118 -147 -17 -9 -18 -7 -11 34 3 23 16 72 27 108 28 87 29 181 4 209 -11 12
-26 21 -34 21 -8 0 -40 -25 -71 -56 l-56 -55 -15 45 c-21 62 -33 73 -66 57
-16 -7 -24 -17 -20 -26 3 -8 0 -12 -8 -9 -13 5 -83 -75 -78 -89 1 -5 -2 -6 -7
-2 -6 3 -10 31 -10 61 1 45 -3 60 -22 80 -28 30 -33 30 -58 -2z"/>
</g>
</svg>
